<mxfile host="app.diagrams.net" modified="2024-03-04T03:46:35.109Z" agent="Mozilla/5.0 (X11; Linux x86_64; rv:123.0) Gecko/20100101 Firefox/123.0" etag="Hjqr6XqRfeMiUA1TtU2F" version="23.1.7" type="github">
  <diagram name="Page-1" id="RlX_1hDp3-UC9HB-A23l">
    <mxGraphModel dx="1434" dy="757" grid="1" gridSize="10" guides="1" tooltips="1" connect="1" arrows="1" fold="1" page="1" pageScale="1" pageWidth="1920" pageHeight="1200" math="0" shadow="0">
      <root>
        <mxCell id="0" />
        <mxCell id="1" parent="0" />
      </root>
    </mxGraphModel>
  </diagram>
</mxfile>
